<?xml version="1.0" encoding="utf-8"?>
<!-- Generator: Adobe Illustrator 19.2.1, SVG Export Plug-In . SVG Version: 6.00 Build 0)  -->
<svg version="1.1" id="Layer_1" xmlns="http://www.w3.org/2000/svg" xmlns:xlink="http://www.w3.org/1999/xlink" x="0px" y="0px"
	 viewBox="0 0 217.1 174.6" style="enable-background:new 0 0 217.1 174.6;" xml:space="preserve">
<style type="text/css">
	.st0{fill:#2E3192;}
	.st1{fill:none;stroke:#00FFFF;stroke-width:2;stroke-linecap:round;stroke-miterlimit:10;}
	.st2{clip-path:url(#SVGID_2_);}
	.st3{fill:#ED1E79;}
	.st4{fill:#00FFFF;}
	.st5{opacity:0.6;fill:none;stroke:#00A99D;stroke-width:12.1321;stroke-miterlimit:10;}
	.st6{fill:#0000FF;}
	.st7{fill:#FFFFFF;}
	.st8{fill:#EA267A;}
	.st9{fill:#2DFFFF;}
</style>
<g>
	<g>
		<path class="st0" d="M13.2,137.4c-0.5-0.7-1.1-1.2-1.9-1.5c-0.8-0.3-1.5-0.5-2.3-0.5c-0.9,0-1.8,0.2-2.6,0.6
			c-0.8,0.4-1.5,0.9-2,1.5c-0.6,0.6-1,1.4-1.3,2.3c-0.3,0.9-0.5,1.7-0.5,2.7c0,1,0.2,1.9,0.5,2.8c0.3,0.9,0.8,1.6,1.3,2.2
			c0.6,0.6,1.2,1.1,2,1.5c0.8,0.4,1.7,0.6,2.6,0.6c1,0,2-0.2,2.8-0.6c0.8-0.4,1.5-1,2.1-1.8l1.5,1.3c-0.8,1-1.7,1.8-2.8,2.3
			s-2.3,0.7-3.7,0.7c-1.2,0-2.3-0.2-3.4-0.7c-1.1-0.4-2-1.1-2.7-1.9C2,148,1.4,147.1,1,146s-0.7-2.3-0.7-3.6c0-1.2,0.2-2.4,0.6-3.5
			c0.4-1.1,1-2,1.8-2.8c0.8-0.8,1.7-1.4,2.7-1.9c1.1-0.5,2.2-0.7,3.5-0.7c1.2,0,2.3,0.2,3.3,0.6c1.1,0.4,2,1.1,2.7,2L13.2,137.4z"/>
		<path class="st0" d="M17.9,132.8h1.9v8.5h0c0.1-0.2,0.3-0.4,0.5-0.7s0.5-0.4,0.8-0.6s0.7-0.3,1-0.4s0.8-0.2,1.2-0.2
			c0.7,0,1.4,0.1,1.9,0.3c0.5,0.2,1,0.5,1.3,0.9c0.4,0.4,0.6,0.9,0.8,1.5c0.2,0.6,0.3,1.2,0.3,1.9v6.9h-1.9v-6.7
			c0-0.9-0.2-1.7-0.6-2.2c-0.4-0.5-1.1-0.8-1.9-0.8c-0.6,0-1.1,0.1-1.6,0.3c-0.4,0.2-0.8,0.5-1.1,0.9c-0.3,0.4-0.5,0.8-0.6,1.4
			c-0.1,0.5-0.2,1.1-0.2,1.8v5.5h-1.9V132.8z"/>
		<path class="st0" d="M30.9,135.3c0-0.4,0.1-0.7,0.4-1c0.3-0.3,0.6-0.4,1-0.4s0.7,0.1,1,0.4c0.3,0.3,0.4,0.6,0.4,1
			c0,0.4-0.1,0.7-0.4,1c-0.3,0.3-0.6,0.4-1,0.4s-0.7-0.1-1-0.4C31,136,30.9,135.7,30.9,135.3z M31.3,139.7h1.9v11.2h-1.9V139.7z"/>
		<path class="st0" d="M44.9,142.5c-0.4-0.5-0.8-0.8-1.3-1c-0.5-0.2-1-0.3-1.5-0.3c-0.6,0-1.2,0.1-1.7,0.3c-0.5,0.2-0.9,0.5-1.2,0.9
			s-0.5,0.8-0.7,1.3c-0.2,0.5-0.2,1-0.2,1.6s0.1,1.1,0.3,1.6c0.2,0.5,0.4,0.9,0.8,1.3c0.3,0.4,0.7,0.7,1.2,0.9
			c0.5,0.2,1,0.3,1.6,0.3c1.2,0,2.2-0.5,2.9-1.4l1.4,1.3c-0.5,0.6-1.2,1.1-1.9,1.4c-0.7,0.3-1.5,0.4-2.3,0.4c-0.9,0-1.7-0.1-2.4-0.4
			c-0.7-0.3-1.3-0.7-1.8-1.2c-0.5-0.5-0.9-1.2-1.2-1.9c-0.3-0.7-0.4-1.5-0.4-2.4c0-0.8,0.1-1.6,0.4-2.3c0.3-0.7,0.7-1.3,1.2-1.9
			c0.5-0.5,1.1-0.9,1.8-1.2s1.5-0.4,2.4-0.4c0.8,0,1.6,0.1,2.4,0.4s1.4,0.7,2,1.3L44.9,142.5z"/>
		<path class="st0" d="M48.3,141.1c0.6-0.6,1.3-1,2-1.3c0.8-0.3,1.6-0.4,2.4-0.4c1.7,0,2.9,0.4,3.6,1.2s1.1,2,1.1,3.6v4.8
			c0,0.3,0,0.7,0,1c0,0.3,0.1,0.7,0.1,0.9h-1.8c-0.1-0.3-0.1-0.5-0.1-0.9c0-0.3,0-0.6,0-0.8h0c-0.4,0.6-0.9,1-1.5,1.4
			s-1.4,0.6-2.2,0.6c-0.6,0-1.1-0.1-1.6-0.2c-0.5-0.1-0.9-0.4-1.3-0.6c-0.4-0.3-0.7-0.6-0.9-1c-0.2-0.4-0.3-0.9-0.3-1.4
			c0-0.9,0.2-1.7,0.7-2.2c0.5-0.5,1.1-0.9,1.8-1.2c0.7-0.3,1.5-0.4,2.3-0.5c0.8-0.1,1.6-0.1,2.3-0.1h0.7v-0.3c0-0.8-0.2-1.4-0.7-1.8
			c-0.5-0.4-1.2-0.6-2.1-0.6c-0.6,0-1.2,0.1-1.8,0.3c-0.6,0.2-1.1,0.5-1.5,0.9L48.3,141.1z M53.8,145.5c-1.2,0-2.1,0.2-2.9,0.5
			c-0.7,0.3-1.1,0.9-1.1,1.7c0,0.7,0.2,1.2,0.7,1.5c0.5,0.3,1.1,0.4,1.8,0.4c0.5,0,1-0.1,1.4-0.3s0.7-0.4,1-0.7
			c0.3-0.3,0.5-0.7,0.6-1.1c0.1-0.4,0.2-0.8,0.2-1.3v-0.7H53.8z"/>
		<path class="st0" d="M72.1,150.4c0,2-0.5,3.6-1.6,4.7c-1,1.1-2.6,1.6-4.5,1.6c-1.1,0-2.1-0.2-3-0.5c-0.9-0.3-1.7-0.9-2.5-1.7
			l1.3-1.5c0.6,0.6,1.2,1.1,1.9,1.5c0.7,0.3,1.4,0.5,2.3,0.5c0.8,0,1.5-0.1,2.1-0.4c0.6-0.2,1-0.6,1.3-1c0.3-0.4,0.5-0.9,0.7-1.5
			c0.1-0.5,0.2-1.1,0.2-1.7v-1.4h0c-0.4,0.7-1,1.2-1.8,1.6c-0.7,0.3-1.5,0.5-2.2,0.5c-0.9,0-1.7-0.1-2.4-0.4
			c-0.7-0.3-1.4-0.7-1.9-1.2s-0.9-1.1-1.2-1.8s-0.4-1.5-0.4-2.3c0-0.9,0.1-1.7,0.4-2.5s0.7-1.4,1.2-1.9c0.5-0.5,1.1-0.9,1.9-1.2
			c0.7-0.3,1.6-0.4,2.4-0.4c0.4,0,0.8,0,1.2,0.1s0.8,0.2,1.1,0.4c0.4,0.2,0.7,0.4,1,0.7c0.3,0.3,0.5,0.6,0.7,1h0v-1.9h1.9V150.4z
			 M62.3,145.3c0,0.6,0.1,1.1,0.3,1.6c0.2,0.5,0.5,0.9,0.9,1.3c0.4,0.4,0.8,0.6,1.3,0.9c0.5,0.2,1,0.3,1.5,0.3
			c0.6,0,1.2-0.1,1.7-0.3c0.5-0.2,0.9-0.5,1.3-0.9c0.3-0.4,0.6-0.8,0.8-1.3c0.2-0.5,0.3-1,0.3-1.5c0-0.6-0.1-1.2-0.3-1.7
			c-0.2-0.5-0.5-0.9-0.8-1.3c-0.4-0.4-0.8-0.7-1.3-0.9c-0.5-0.2-1-0.3-1.6-0.3c-0.6,0-1.1,0.1-1.6,0.3s-0.9,0.5-1.2,0.9
			c-0.3,0.4-0.6,0.8-0.8,1.3S62.3,144.7,62.3,145.3z"/>
		<path class="st0" d="M74.9,145.3c0-0.9,0.2-1.7,0.5-2.4c0.3-0.7,0.7-1.3,1.2-1.9s1.2-0.9,1.9-1.2c0.7-0.3,1.5-0.4,2.4-0.4
			s1.7,0.1,2.4,0.4s1.4,0.7,1.9,1.2s0.9,1.1,1.2,1.9c0.3,0.7,0.5,1.5,0.5,2.4s-0.2,1.7-0.5,2.4c-0.3,0.7-0.7,1.3-1.2,1.9
			s-1.2,0.9-1.9,1.2c-0.7,0.3-1.5,0.4-2.4,0.4s-1.7-0.1-2.4-0.4c-0.7-0.3-1.4-0.7-1.9-1.2s-0.9-1.1-1.2-1.9S74.9,146.1,74.9,145.3z
			 M77,145.3c0,0.6,0.1,1.1,0.3,1.6c0.2,0.5,0.5,0.9,0.8,1.3c0.4,0.4,0.8,0.7,1.3,0.9s1,0.3,1.6,0.3s1.2-0.1,1.6-0.3
			c0.5-0.2,0.9-0.5,1.3-0.9c0.4-0.4,0.6-0.8,0.8-1.3c0.2-0.5,0.3-1.1,0.3-1.6s-0.1-1.1-0.3-1.6s-0.5-0.9-0.8-1.3
			c-0.4-0.4-0.8-0.7-1.3-0.9c-0.5-0.2-1-0.3-1.6-0.3s-1.2,0.1-1.6,0.3s-0.9,0.5-1.3,0.9c-0.4,0.4-0.6,0.8-0.8,1.3
			C77,144.1,77,144.7,77,145.3z"/>
		<path class="st0" d="M94.9,133.9h2.2L101,148h0l4.2-14.1h2.3l4.1,14.1h0l3.9-14.1h2.1l-5,17h-2.2l-4.2-14.4h0l-4.2,14.4h-2.2
			L94.9,133.9z"/>
		<path class="st0" d="M128.5,148.8c-0.7,0.9-1.4,1.5-2.2,1.8c-0.8,0.3-1.7,0.5-2.8,0.5c-0.9,0-1.7-0.2-2.4-0.5s-1.3-0.7-1.8-1.3
			s-0.9-1.2-1.1-1.9c-0.3-0.7-0.4-1.5-0.4-2.3c0-0.9,0.1-1.7,0.4-2.4s0.7-1.4,1.2-1.9c0.5-0.5,1.1-0.9,1.8-1.2
			c0.7-0.3,1.5-0.4,2.3-0.4c0.8,0,1.5,0.1,2.2,0.4s1.2,0.6,1.7,1.2c0.5,0.5,0.8,1.1,1.1,1.8s0.4,1.6,0.4,2.5v0.6h-9.1
			c0,0.5,0.1,0.9,0.3,1.4s0.5,0.8,0.8,1.2c0.3,0.3,0.7,0.6,1.1,0.8c0.4,0.2,0.9,0.3,1.4,0.3c0.8,0,1.5-0.1,2.1-0.4s1.1-0.7,1.5-1.3
			L128.5,148.8z M126.9,144.3c0-1-0.3-1.7-0.9-2.3c-0.6-0.6-1.4-0.9-2.4-0.9s-1.9,0.3-2.5,0.9c-0.6,0.6-1,1.3-1.2,2.3H126.9z"/>
		<path class="st0" d="M131.7,132.8h1.9v8.5h0c0.5-0.6,1.1-1.1,1.8-1.4c0.7-0.3,1.4-0.5,2.2-0.5c0.9,0,1.7,0.1,2.4,0.4
			s1.3,0.7,1.9,1.2c0.5,0.5,0.9,1.2,1.2,1.9c0.3,0.7,0.4,1.5,0.4,2.3s-0.1,1.6-0.4,2.3c-0.3,0.7-0.7,1.3-1.2,1.9
			c-0.5,0.5-1.1,0.9-1.8,1.2c-0.7,0.3-1.4,0.4-2.2,0.4c-1,0-1.9-0.2-2.6-0.7s-1.3-1-1.7-1.6h0v2h-1.9V132.8z M133.6,145.3
			c0,0.6,0.1,1.1,0.3,1.6c0.2,0.5,0.5,0.9,0.8,1.3c0.4,0.4,0.8,0.7,1.3,0.9c0.5,0.2,1,0.3,1.6,0.3s1.2-0.1,1.6-0.3s0.9-0.5,1.3-0.9
			c0.4-0.4,0.6-0.8,0.8-1.3c0.2-0.5,0.3-1.1,0.3-1.6s-0.1-1.1-0.3-1.6c-0.2-0.5-0.5-0.9-0.8-1.3c-0.4-0.4-0.8-0.7-1.3-0.9
			s-1-0.3-1.6-0.3s-1.2,0.1-1.6,0.3c-0.5,0.2-0.9,0.5-1.3,0.9c-0.4,0.4-0.6,0.8-0.8,1.3S133.6,144.7,133.6,145.3z"/>
		<path class="st0" d="M147.4,141.2h-2.4v-1.6h2.4v-2.5c0-0.7,0.1-1.3,0.2-1.9s0.3-1.1,0.7-1.5c0.3-0.4,0.7-0.7,1.2-1
			s1.1-0.3,1.9-0.3c0.2,0,0.5,0,0.8,0.1c0.3,0,0.5,0.1,0.7,0.2l-0.3,1.7c-0.4-0.2-0.9-0.2-1.3-0.2c-0.5,0-0.9,0.1-1.1,0.3
			c-0.3,0.2-0.5,0.4-0.6,0.7c-0.1,0.3-0.2,0.7-0.2,1.1c0,0.4,0,0.9,0,1.3v2.1h2.7v1.6h-2.7v9.6h-1.9V141.2z"/>
		<path class="st0" d="M154,142.3c0-0.5,0-1,0-1.4c0-0.4,0-0.9,0-1.2h1.8c0,0.3,0,0.6,0,0.9s0,0.6,0,0.9h0c0.1-0.3,0.3-0.5,0.5-0.8
			s0.5-0.5,0.8-0.7c0.3-0.2,0.7-0.4,1.1-0.5s0.8-0.2,1.3-0.2c0.1,0,0.3,0,0.4,0c0.1,0,0.3,0,0.4,0.1l-0.1,1.9
			c-0.3-0.1-0.7-0.1-1-0.1c-1.2,0-2,0.4-2.5,1.1s-0.8,1.8-0.8,3.1v5.5H154V142.3z"/>
		<path class="st0" d="M162.2,135.3c0-0.4,0.1-0.7,0.4-1c0.3-0.3,0.6-0.4,1-0.4s0.7,0.1,1,0.4c0.3,0.3,0.4,0.6,0.4,1
			c0,0.4-0.1,0.7-0.4,1c-0.3,0.3-0.6,0.4-1,0.4s-0.7-0.1-1-0.4C162.3,136,162.2,135.7,162.2,135.3z M162.6,139.7h1.9v11.2h-1.9
			V139.7z"/>
		<path class="st0" d="M178.2,148.8c-0.7,0.9-1.4,1.5-2.2,1.8c-0.8,0.3-1.7,0.5-2.8,0.5c-0.9,0-1.7-0.2-2.4-0.5s-1.3-0.7-1.8-1.3
			s-0.9-1.2-1.1-1.9c-0.3-0.7-0.4-1.5-0.4-2.3c0-0.9,0.1-1.7,0.4-2.4s0.7-1.4,1.2-1.9c0.5-0.5,1.1-0.9,1.8-1.2
			c0.7-0.3,1.5-0.4,2.3-0.4c0.8,0,1.5,0.1,2.2,0.4s1.2,0.6,1.7,1.2c0.5,0.5,0.8,1.1,1.1,1.8s0.4,1.6,0.4,2.5v0.6h-9.1
			c0,0.5,0.1,0.9,0.3,1.4s0.5,0.8,0.8,1.2c0.3,0.3,0.7,0.6,1.1,0.8c0.4,0.2,0.9,0.3,1.4,0.3c0.8,0,1.5-0.1,2.1-0.4s1.1-0.7,1.5-1.3
			L178.2,148.8z M176.6,144.3c0-1-0.3-1.7-0.9-2.3c-0.6-0.6-1.4-0.9-2.4-0.9s-1.9,0.3-2.5,0.9c-0.6,0.6-1,1.3-1.2,2.3H176.6z"/>
		<path class="st0" d="M181.5,142.3c0-0.5,0-1,0-1.4c0-0.4,0-0.9,0-1.2h1.8c0,0.3,0,0.6,0,0.9s0,0.6,0,0.9h0
			c0.1-0.3,0.3-0.5,0.5-0.8s0.5-0.5,0.8-0.7c0.3-0.2,0.7-0.4,1.1-0.5s0.8-0.2,1.3-0.2c0.7,0,1.4,0.1,1.9,0.3c0.5,0.2,1,0.5,1.3,0.9
			c0.4,0.4,0.6,0.9,0.8,1.5c0.2,0.6,0.3,1.2,0.3,1.9v6.9h-1.9v-6.7c0-0.9-0.2-1.7-0.6-2.2c-0.4-0.5-1.1-0.8-1.9-0.8
			c-0.6,0-1.1,0.1-1.6,0.3c-0.4,0.2-0.8,0.5-1.1,0.9c-0.3,0.4-0.5,0.8-0.6,1.4c-0.1,0.5-0.2,1.1-0.2,1.8v5.5h-1.9V142.3z"/>
		<path class="st0" d="M204.2,148.9L204.2,148.9c-0.4,0.6-1,1.2-1.7,1.6s-1.6,0.7-2.6,0.7c-0.8,0-1.5-0.1-2.2-0.4
			c-0.7-0.3-1.3-0.7-1.8-1.2c-0.5-0.5-0.9-1.2-1.2-1.9c-0.3-0.7-0.4-1.5-0.4-2.3s0.1-1.6,0.4-2.3c0.3-0.7,0.7-1.3,1.2-1.9
			c0.5-0.5,1.1-0.9,1.9-1.2s1.5-0.4,2.4-0.4c0.8,0,1.6,0.2,2.2,0.5c0.7,0.3,1.3,0.8,1.8,1.4h0v-8.5h1.9v18.1h-1.9V148.9z
			 M204.2,145.3c0-0.6-0.1-1.1-0.3-1.6s-0.5-0.9-0.8-1.3c-0.4-0.4-0.8-0.7-1.3-0.9c-0.5-0.2-1-0.3-1.6-0.3s-1.2,0.1-1.6,0.3
			s-0.9,0.5-1.3,0.9c-0.4,0.4-0.6,0.8-0.8,1.3c-0.2,0.5-0.3,1.1-0.3,1.6s0.1,1.1,0.3,1.6c0.2,0.5,0.5,0.9,0.8,1.3
			c0.4,0.4,0.8,0.7,1.3,0.9s1,0.3,1.6,0.3s1.2-0.1,1.6-0.3c0.5-0.2,0.9-0.5,1.3-0.9c0.4-0.4,0.6-0.8,0.8-1.3
			C204.1,146.4,204.2,145.9,204.2,145.3z"/>
		<path class="st0" d="M209.7,147.9c0.4,0.5,0.8,0.8,1.2,1.1c0.4,0.3,1,0.4,1.7,0.4c0.3,0,0.6,0,0.9-0.1c0.3-0.1,0.6-0.2,0.8-0.3
			c0.2-0.1,0.4-0.3,0.6-0.5c0.1-0.2,0.2-0.5,0.2-0.8s-0.1-0.6-0.2-0.7s-0.3-0.4-0.5-0.5s-0.5-0.2-0.8-0.3c-0.3-0.1-0.6-0.2-0.9-0.2
			c-0.5-0.1-1-0.2-1.5-0.4c-0.5-0.1-0.9-0.3-1.3-0.6c-0.4-0.2-0.6-0.5-0.9-0.9c-0.2-0.4-0.3-0.8-0.3-1.4c0-0.5,0.1-1,0.4-1.4
			c0.2-0.4,0.6-0.8,1-1c0.4-0.3,0.8-0.5,1.3-0.6c0.5-0.1,1-0.2,1.5-0.2c0.8,0,1.5,0.2,2.2,0.5c0.7,0.3,1.2,0.8,1.6,1.6l-1.6,1
			c-0.2-0.4-0.6-0.7-0.9-1c-0.4-0.2-0.9-0.4-1.4-0.4c-0.3,0-0.5,0-0.8,0.1c-0.3,0.1-0.5,0.2-0.7,0.3c-0.2,0.1-0.4,0.3-0.5,0.5
			s-0.2,0.4-0.2,0.7c0,0.2,0.1,0.4,0.2,0.6c0.2,0.2,0.4,0.3,0.6,0.4s0.6,0.2,0.9,0.3c0.3,0.1,0.7,0.2,1.1,0.2c0.5,0.1,1,0.2,1.4,0.4
			c0.4,0.2,0.8,0.4,1.2,0.6s0.6,0.6,0.8,1c0.2,0.4,0.3,0.9,0.3,1.4c0,0.6-0.1,1.2-0.4,1.6s-0.6,0.8-1,1.1c-0.4,0.3-0.9,0.5-1.4,0.6
			c-0.5,0.1-1.1,0.2-1.6,0.2c-1,0-1.8-0.1-2.5-0.4c-0.7-0.3-1.3-0.8-1.9-1.6L209.7,147.9z"/>
	</g>
	<g>
		<path class="st9" d="M189,174.6H28.2c-0.6,0-1-0.4-1-1s0.4-1,1-1H189c0.6,0,1,0.4,1,1S189.5,174.6,189,174.6z"/>
	</g>
	<path class="st8" d="M28.2,71.8c0,1.5,1.8,2.2,2.8,1.1L48,50.8c1-1.1,2.6-1.3,3.9-0.6c7.6,4.3,16.6,6.8,25.8,6.8
		c4.8,0,9.5-0.7,13.9-1.9c-1.7-5-2.6-10.3-2.6-15.8C89,23.3,96.2,9.2,107.7,0H28.8c-0.4,2.4-0.6,4.9-0.6,7.5V71.8z M49.6,6.7
		c4.1,0,7.5,3.3,7.5,7.5s-3.3,7.5-7.5,7.5s-7.5-3.3-7.5-7.5S45.5,6.7,49.6,6.7z"/>
	<path class="st9" d="M91.6,55.1c6.7,19.9,25.7,34.3,47.9,34.3c9.2,0,18.1-2.5,25.8-6.8c1.3-0.7,2.9-0.5,3.9,0.6l16.9,22.1
		c1,1.1,2.8,0.4,2.8-1.1V39.8c0-16-7.6-30.5-19.3-39.8h-41.9c0.3,2.3,0.5,4.6,0.5,6.9C128.2,29.8,112.6,49.1,91.6,55.1z M167.5,39
		c4.1,0,7.5,3.3,7.5,7.5c0,4.1-3.3,7.5-7.5,7.5s-7.5-3.3-7.5-7.5C160,42.4,163.4,39,167.5,39z"/>
	<path class="st0" d="M89,39.2c0,5.5,0.9,10.9,2.6,15.8c21-6,36.6-25.3,36.6-48.2c0-2.3-0.2-4.6-0.5-6.9h-20
		C96.2,9.2,89,23.3,89,39.2z"/>
	<circle class="st0" cx="7.5" cy="14.2" r="7.5"/>
	<circle class="st0" cx="209.6" cy="46.5" r="7.5"/>
</g>
</svg>
