<?xml version="1.0" encoding="utf-8"?>
<!-- Generator: Adobe Illustrator 19.2.1, SVG Export Plug-In . SVG Version: 6.00 Build 0)  -->
<svg version="1.1" id="Layer_1" xmlns="http://www.w3.org/2000/svg" xmlns:xlink="http://www.w3.org/1999/xlink" x="0px" y="0px"
	 viewBox="0 0 217.1 149.1" style="enable-background:new 0 0 217.1 149.1;" xml:space="preserve">
<style type="text/css">
	.st0{fill:#2E3192;}
	.st1{fill:none;stroke:#00FFFF;stroke-width:2;stroke-linecap:round;stroke-miterlimit:10;}
	.st2{clip-path:url(#SVGID_2_);}
	.st3{fill:#ED1E79;}
	.st4{fill:#00FFFF;}
	.st5{opacity:0.6;fill:none;stroke:#00A99D;stroke-width:12.1321;stroke-miterlimit:10;}
	.st6{fill:#0000FF;}
	.st7{fill:#FFFFFF;}
	.st8{fill:#EA267A;}
	.st9{fill:#2DFFFF;}
</style>
<g>
	<path class="st0" d="M128.2,50.1c0-5.6-0.9-11-2.6-16C104.4,39.9,89,59.4,89,82.5c0,5.5,0.9,10.9,2.6,15.8
		C112.6,92.3,128.2,73,128.2,50.1z"/>
	<circle class="st0" cx="7.5" cy="57.4" r="7.5"/>
	<g>
		<path class="st8" d="M125.6,34.1c-6.6-19.8-25-34-47.1-34.1C50.9-0.1,28.2,23.1,28.2,50.7v64.4c0,1.5,1.8,2.2,2.8,1.1L48,94.1
			c1-1.1,2.6-1.3,3.9-0.6c7.6,4.3,16.6,6.8,25.8,6.8c4.8,0,9.5-0.7,13.9-1.9C89.9,93.4,89,88,89,82.5C89,59.4,104.4,39.9,125.6,34.1
			z M49.6,64.9c-4.1,0-7.5-3.3-7.5-7.5s3.3-7.5,7.5-7.5s7.5,3.3,7.5,7.5S53.7,64.9,49.6,64.9z"/>
	</g>
	<circle class="st0" cx="209.6" cy="89.8" r="7.5"/>
	<g>
		<path class="st9" d="M138.6,32.4c-4.5,0-8.9,0.6-13,1.8c1.7,5,2.6,10.4,2.6,16c0,22.9-15.6,42.2-36.6,48.2
			c6.7,19.9,25.7,34.3,47.9,34.3c9.2,0,18.1-2.5,25.8-6.8c1.3-0.7,2.9-0.5,3.9,0.6l16.9,22.1c1,1.1,2.8,0.4,2.8-1.1V83.1
			C188.9,55.4,166.3,32.3,138.6,32.4z M167.5,97.3c-4.1,0-7.5-3.3-7.5-7.5c0-4.1,3.3-7.5,7.5-7.5s7.5,3.3,7.5,7.5
			C175,93.9,171.7,97.3,167.5,97.3z"/>
	</g>
</g>
</svg>
